<svg width="289" height="70" viewBox="0 0 289 70" fill="none" xmlns="http://www.w3.org/2000/svg">
<path d="M144.805 67.152C141.093 67.152 137.605 66.608 134.341 65.52C131.141 64.368 128.357 62.736 125.989 60.624C123.621 58.512 121.765 55.92 120.421 52.848C119.077 49.712 118.405 46.16 118.405 42.192C118.405 38.288 119.077 34.8 120.421 31.728C121.829 28.592 123.685 25.968 125.989 23.856C128.293 21.68 130.917 20.048 133.861 18.96C136.869 17.808 139.973 17.232 143.173 17.232C146.821 17.232 150.053 17.808 152.869 18.96C155.685 20.112 158.021 21.712 159.877 23.76C161.797 25.808 163.237 28.24 164.197 31.056C165.157 33.808 165.637 36.816 165.637 40.08C165.637 41.36 165.541 42.608 165.349 43.824C165.221 44.976 165.093 45.84 164.965 46.416H132.517C133.221 49.872 134.789 52.4 137.221 54C139.653 55.6 142.821 56.4 146.725 56.4C148.901 56.4 150.949 56.112 152.869 55.536C154.853 54.96 156.901 54.128 159.013 53.04L163.717 61.584C160.965 63.312 157.925 64.688 154.597 65.712C151.269 66.672 148.005 67.152 144.805 67.152ZM143.653 27.984C140.837 27.984 138.469 28.72 136.549 30.192C134.693 31.664 133.413 33.904 132.709 36.912H153.061C152.357 30.96 149.221 27.984 143.653 27.984ZM204.864 67.152C200.96 67.152 197.248 66.48 193.728 65.136C190.272 63.728 187.2 61.68 184.512 58.992C181.888 56.304 179.776 52.976 178.176 49.008C176.64 44.976 175.872 40.336 175.872 35.088C175.872 29.904 176.64 25.296 178.176 21.264C179.712 17.168 181.824 13.712 184.512 10.896C187.2 8.08 190.368 5.936 194.016 4.464C197.664 2.992 201.568 2.256 205.728 2.256C209.696 2.256 213.28 3.088 216.48 4.752C219.68 6.352 222.336 8.176 224.448 10.224L216.672 18.96C215.2 17.616 213.568 16.528 211.776 15.696C210.048 14.864 208.032 14.448 205.728 14.448C203.488 14.448 201.44 14.928 199.584 15.888C197.728 16.784 196.096 18.096 194.688 19.824C193.344 21.552 192.288 23.664 191.52 26.16C190.752 28.656 190.368 31.472 190.368 34.608C190.368 41.072 191.84 46.096 194.784 49.68C197.728 53.2 201.568 54.96 206.304 54.96C208.544 54.96 210.592 54.448 212.448 53.424C214.368 52.4 216.096 51.056 217.632 49.392L225.408 57.936C220.224 64.08 213.376 67.152 204.864 67.152ZM234.778 66V3.408H249.082V29.04H249.37L267.898 3.408H283.546L264.73 28.272L285.274 66H269.626L256.282 39.408L249.082 48.912V66H234.778Z" fill="black"/>
<path d="M14.032 64.944L13.3298 66.8167L13.3472 66.8232L13.3648 66.8294L14.032 64.944ZM2.8 58.128L1.26978 56.8402L0.0148871 58.3313L1.47303 59.6244L2.8 58.128ZM10.96 48.432L12.2196 46.8785L10.6942 45.6417L9.42979 47.1442L10.96 48.432ZM18.736 53.136L17.9431 54.9721L17.9431 54.9721L18.736 53.136ZM34.288 53.424L33.1117 51.8065L33.1117 51.8065L34.288 53.424ZM35.728 46.8L34.0004 47.8077L34.0199 47.8411L34.0407 47.8738L35.728 46.8ZM33.808 44.784L34.9464 43.1396L34.9464 43.1396L33.808 44.784ZM26.704 41.424L27.5015 39.5898L27.4918 39.5857L26.704 41.424ZM18.64 37.968L19.4278 36.1297L19.3817 36.1099L19.3346 36.0925L18.64 37.968ZM13.552 35.472L12.4739 37.1565L12.4888 37.1661L12.5038 37.1753L13.552 35.472ZM9.328 31.92L7.81436 33.2272L7.82944 33.2447L7.84493 33.2618L9.328 31.92ZM6.352 27.12L4.48201 27.8293L4.49703 27.8689L4.51371 27.9078L6.352 27.12ZM6.928 13.68L5.13915 12.7856L5.13401 12.7959L5.12898 12.8062L6.928 13.68ZM11.632 7.72799L12.9172 9.26038L12.9217 9.25658L11.632 7.72799ZM18.928 3.696L18.2827 1.80297L18.2827 1.80298L18.928 3.696ZM49.072 10.512L50.6288 11.7675L51.7967 10.3193L50.4366 9.04989L49.072 10.512ZM41.872 19.44L40.6872 21.0513L42.2282 22.1843L43.4288 20.6955L41.872 19.44ZM35.344 15.792L34.5825 17.6414L34.606 17.651L34.6297 17.6601L35.344 15.792ZM21.712 15.888L20.6195 14.2128L20.6023 14.224L20.5853 14.2355L21.712 15.888ZM22.384 24.432L21.4178 26.1832L21.4533 26.2027L21.4896 26.2209L22.384 24.432ZM29.872 27.504L30.6626 25.6669L30.602 25.6408L30.5397 25.6187L29.872 27.504ZM37.456 30.768L36.6654 32.6051L36.7138 32.6259L36.7633 32.6442L37.456 30.768ZM47.248 37.104L45.7473 38.4261L45.756 38.436L45.7649 38.4458L47.248 37.104ZM49.264 55.248L51.0725 56.102L51.077 56.0925L51.0814 56.083L49.264 55.248ZM44.56 61.392L45.8497 62.9206L45.8635 62.909L45.877 62.8972L44.56 61.392ZM36.976 65.616L37.6205 67.5093L37.6385 67.5032L37.6563 67.4968L36.976 65.616ZM26.608 65.152C22.6213 65.152 18.6546 64.4582 14.6992 63.0586L13.3648 66.8294C17.7294 68.3738 22.1467 69.152 26.608 69.152V65.152ZM14.7342 63.0713C10.8761 61.6245 7.34233 59.483 4.12697 56.6316L1.47303 59.6244C5.04167 62.789 8.99588 65.1915 13.3298 66.8167L14.7342 63.0713ZM4.33022 59.4158L12.4902 49.7198L9.42979 47.1442L1.26978 56.8402L4.33022 59.4158ZM9.7004 49.9855C12.2112 52.0213 14.9604 53.6841 17.9431 54.9721L19.5289 51.2999C16.8796 50.1559 14.4448 48.6827 12.2196 46.8785L9.7004 49.9855ZM17.9431 54.9721C21.0099 56.2964 24.2237 56.96 27.568 56.96V52.96C24.7683 52.96 22.0941 52.4076 19.5289 51.2999L17.9431 54.9721ZM27.568 56.96C30.7769 56.96 33.5394 56.4414 35.4643 55.0415L33.1117 51.8065C32.2206 52.4546 30.5031 52.96 27.568 52.96V56.96ZM35.4643 55.0415C37.3367 53.6797 38.4 51.7908 38.4 49.488H34.4C34.4 50.3852 34.0553 51.1203 33.1117 51.8065L35.4643 55.0415ZM38.4 49.488C38.4 48.1332 38.121 46.8351 37.4153 45.7262L34.0407 47.8738C34.231 48.1729 34.4 48.6668 34.4 49.488H38.4ZM37.4556 45.7923C36.841 44.7387 35.9857 43.8591 34.9464 43.1396L32.6696 46.4284C33.2943 46.8609 33.719 47.3253 34.0004 47.8077L37.4556 45.7923ZM34.9464 43.1396C33.9726 42.4655 32.8193 41.8591 31.5121 41.3087L29.9599 44.9953C31.0847 45.4689 31.9794 45.9505 32.6696 46.4284L34.9464 43.1396ZM31.5121 41.3087C30.3046 40.8003 28.9678 40.2274 27.5015 39.5899L25.9065 43.2581C27.3842 43.9006 28.7354 44.4797 29.9599 44.9953L31.5121 41.3087ZM27.4918 39.5857L19.4278 36.1297L17.8522 39.8063L25.9162 43.2623L27.4918 39.5857ZM19.3346 36.0925C17.737 35.5008 16.159 34.7279 14.6002 33.7687L12.5038 37.1753C14.273 38.2641 16.087 39.1552 17.9454 39.8435L19.3346 36.0925ZM14.6301 33.7875C13.1725 32.8546 11.9023 31.7843 10.8111 30.5782L7.84493 33.2618C9.18571 34.7437 10.7315 36.0414 12.4739 37.1565L14.6301 33.7875ZM10.8416 30.6128C9.76621 29.3675 8.88129 27.9445 8.19029 26.3322L4.51371 27.9078C5.35871 29.8795 6.45779 31.6565 7.81436 33.2272L10.8416 30.6128ZM8.222 26.4107C7.61657 24.8146 7.296 22.98 7.296 20.88H3.296C3.296 23.388 3.67943 25.7134 4.48201 27.8293L8.222 26.4107ZM7.296 20.88C7.296 18.614 7.77505 16.5137 8.72702 14.5538L5.12898 12.8062C3.90495 15.3263 3.296 18.026 3.296 20.88H7.296ZM8.71685 14.5744C9.74576 12.5166 11.1419 10.7494 12.9172 9.26038L10.3468 6.19561C8.15413 8.0346 6.41425 10.2354 5.13915 12.7856L8.71685 14.5744ZM12.9217 9.25658C14.7596 7.70588 16.967 6.47754 19.5734 5.58902L18.2827 1.80298C15.257 2.83446 12.6004 4.29412 10.3423 6.19941L12.9217 9.25658ZM19.5733 5.58902C22.1547 4.70901 25.0372 4.256 28.24 4.256V0.255997C24.6588 0.255997 21.3333 0.762984 18.2827 1.80297L19.5733 5.58902ZM28.24 4.256C31.829 4.256 35.293 4.91276 38.6447 6.2295L40.1073 2.5065C36.291 1.00724 32.331 0.255997 28.24 0.255997V4.256ZM38.6447 6.2295C41.9889 7.54328 45.0071 9.45387 47.7074 11.9741L50.4366 9.04989C47.3769 6.19412 43.9311 4.00872 40.1073 2.5065L38.6447 6.2295ZM47.5152 9.25649L40.3152 18.1845L43.4288 20.6955L50.6288 11.7675L47.5152 9.25649ZM43.0568 17.8287C40.7586 16.1389 38.4261 14.8292 36.0583 13.9239L34.6297 17.6601C36.6139 18.4188 38.6334 19.5411 40.6872 21.0513L43.0568 17.8287ZM36.1055 13.9426C33.6264 12.9219 30.7293 12.448 27.472 12.448V16.448C30.3587 16.448 32.7096 16.8701 34.5825 17.6414L36.1055 13.9426ZM27.472 12.448C24.8474 12.448 22.5113 12.979 20.6195 14.2128L22.8045 17.5632C23.8567 16.877 25.3606 16.448 27.472 16.448V12.448ZM20.5853 14.2355C18.5759 15.6056 17.6 17.6641 17.6 20.112H21.6C21.6 18.8479 22.0321 18.0904 22.8387 17.5405L20.5853 14.2355ZM17.6 20.112C17.6 22.8136 19.0337 24.8677 21.4178 26.1832L23.3502 22.6808C22.0223 21.9482 21.6 21.1224 21.6 20.112H17.6ZM21.4896 26.2209C23.5103 27.2312 26.0901 28.2863 29.2043 29.3893L30.5397 25.6187C27.5099 24.5457 25.0977 23.5528 23.2784 22.6431L21.4896 26.2209ZM29.0814 29.3411L36.6654 32.6051L38.2466 28.9309L30.6626 25.6669L29.0814 29.3411ZM36.7633 32.6442C40.6851 34.0923 43.6447 36.0394 45.7473 38.4261L48.7487 35.7819C46.1153 32.7926 42.5469 30.5157 38.1487 28.8918L36.7633 32.6442ZM45.7649 38.4458C47.7952 40.6898 48.896 43.7263 48.896 47.76H52.896C52.896 42.9617 51.5648 38.8942 48.7311 35.7622L45.7649 38.4458ZM48.896 47.76C48.896 50.0978 48.4134 52.3088 47.4466 54.413L51.0814 56.083C52.2906 53.4512 52.896 50.6702 52.896 47.76H48.896ZM47.4555 54.394C46.4927 56.4329 45.0984 58.2633 43.243 59.8868L45.877 62.8972C48.1176 60.9367 49.8593 58.6711 51.0725 56.102L47.4555 54.394ZM43.2703 59.8634C41.4342 61.4126 39.1233 62.7125 36.2957 63.7352L37.6563 67.4968C40.8447 66.3435 43.5898 64.8274 45.8497 62.9206L43.2703 59.8634ZM36.3315 63.7227C33.5722 64.662 30.341 65.152 26.608 65.152V69.152C30.683 69.152 34.3638 68.618 37.6205 67.5093L36.3315 63.7227ZM62.7625 66H60.7625V68H62.7625V66ZM62.7625 3.408V1.408H60.7625V3.408H62.7625ZM94.4425 4.464L93.9774 6.40915L94.0018 6.41499L94.0263 6.42021L94.4425 4.464ZM102.219 7.824L101.034 9.4353L101.06 9.45482L101.087 9.47346L102.219 7.824ZM107.499 14.064L105.701 14.9408L105.705 14.9497L105.71 14.9584L107.499 14.064ZM107.403 33.072L105.614 32.1776L105.605 32.1948L105.597 32.2121L107.403 33.072ZM102.123 39.696L100.901 38.1124L100.901 38.1124L102.123 39.696ZM76.8745 44.784V42.784H74.8745V44.784H76.8745ZM76.8745 66V68H78.8745V66H76.8745ZM76.8745 33.552H74.8745V35.552H76.8745V33.552ZM92.6185 16.656L91.4716 18.2945L91.4841 18.3032L91.4968 18.3118L92.6185 16.656ZM76.8745 14.64V12.64H74.8745V14.64H76.8745ZM64.7625 66V3.408H60.7625V66H64.7625ZM62.7625 5.408H84.9385V1.408H62.7625V5.408ZM84.9385 5.408C88.1924 5.408 91.2027 5.74566 93.9774 6.40915L94.9076 2.51884C91.7943 1.77434 88.4687 1.408 84.9385 1.408V5.408ZM94.0263 6.42021C96.795 7.00929 99.1162 8.02536 101.034 9.4353L103.403 6.2127C100.969 4.42263 98.106 3.1987 94.8587 2.50778L94.0263 6.42021ZM101.087 9.47346C103.021 10.7993 104.561 12.6036 105.701 14.9408L109.296 13.1872C107.876 10.2764 105.896 7.92071 103.35 6.17454L101.087 9.47346ZM105.71 14.9584C106.814 17.1666 107.419 20.0074 107.419 23.568H111.419C111.419 19.5766 110.743 16.0814 109.287 13.1696L105.71 14.9584ZM107.419 23.568C107.419 26.971 106.792 29.8205 105.614 32.1776L109.191 33.9664C110.701 30.9475 111.419 27.461 111.419 23.568H107.419ZM105.597 32.2121C104.445 34.6316 102.879 36.5865 100.901 38.1124L103.344 41.2796C105.846 39.3495 107.8 36.8884 109.208 33.9319L105.597 32.2121ZM100.901 38.1124C98.8789 39.6723 96.5211 40.8431 93.8026 41.6114L94.8904 45.4606C98.0599 44.5649 100.886 43.1757 103.344 41.2796L100.901 38.1124ZM93.8026 41.6114C91.0503 42.3892 88.0986 42.784 84.9385 42.784V46.784C88.4344 46.784 91.7547 46.3468 94.8904 45.4606L93.8026 41.6114ZM84.9385 42.784H76.8745V46.784H84.9385V42.784ZM74.8745 44.784V66H78.8745V44.784H74.8745ZM76.8745 64H62.7625V68H76.8745V64ZM76.8745 35.552H84.0745V31.552H76.8745V35.552ZM84.0745 35.552C88.1582 35.552 91.5944 34.6733 94.0244 32.5674C96.5091 30.414 97.5945 27.2848 97.5945 23.568H93.5945C93.5945 26.5072 92.7599 28.37 91.4046 29.5446C89.9946 30.7666 87.6708 31.552 84.0745 31.552V35.552ZM97.5945 23.568C97.5945 19.9039 96.4605 16.843 93.7402 15.0002L91.4968 18.3118C92.7445 19.157 93.5945 20.7041 93.5945 23.568H97.5945ZM93.7654 15.0175C91.3604 13.334 88.0311 12.64 84.0745 12.64V16.64C87.6699 16.64 90.0366 17.29 91.4716 18.2945L93.7654 15.0175ZM84.0745 12.64H76.8745V16.64H84.0745V12.64ZM74.8745 14.64V33.552H78.8745V14.64H74.8745ZM134.341 65.52L133.664 67.4018L133.686 67.4098L133.709 67.4174L134.341 65.52ZM120.421 52.848L118.583 53.6358L118.586 53.6427L118.589 53.6496L120.421 52.848ZM120.421 31.728L118.596 30.9088L118.593 30.9176L118.589 30.9264L120.421 31.728ZM125.989 23.856L127.34 25.3303L127.351 25.3202L127.362 25.31L125.989 23.856ZM133.861 18.96L134.554 20.836L134.565 20.8319L134.576 20.8277L133.861 18.96ZM152.869 18.96L152.112 20.8111L152.112 20.8111L152.869 18.96ZM159.877 23.76L158.395 25.103L158.406 25.1156L158.418 25.1279L159.877 23.76ZM164.197 31.056L162.304 31.7013L162.306 31.7081L162.309 31.7147L164.197 31.056ZM165.349 43.824L163.373 43.5121L163.366 43.5575L163.361 43.6031L165.349 43.824ZM164.965 46.416V48.416H166.569L166.917 46.8499L164.965 46.416ZM132.517 46.416V44.416H130.069L130.557 46.8152L132.517 46.416ZM137.221 54L138.32 52.3292L138.32 52.3292L137.221 54ZM152.869 55.536L152.311 53.6153L152.303 53.6178L152.294 53.6203L152.869 55.536ZM159.013 53.04L160.765 52.0754L159.827 50.3711L158.097 51.2621L159.013 53.04ZM163.717 61.584L164.781 63.2778L166.38 62.2736L165.469 60.6194L163.717 61.584ZM154.597 65.712L155.151 67.6336L155.168 67.6288L155.185 67.6236L154.597 65.712ZM136.549 30.192L135.332 28.6048L135.319 28.6148L135.306 28.625L136.549 30.192ZM132.709 36.912L130.762 36.4562L130.187 38.912H132.709V36.912ZM153.061 36.912V38.912H155.312L155.047 36.6771L153.061 36.912ZM144.805 65.152C141.291 65.152 138.018 64.6375 134.973 63.6226L133.709 67.4174C137.192 68.5785 140.895 69.152 144.805 69.152V65.152ZM135.018 63.6382C132.042 62.5666 129.484 61.0611 127.32 59.1314L124.658 62.1166C127.23 64.4109 130.24 66.1694 133.664 67.4018L135.018 63.6382ZM127.32 59.1314C125.179 57.2218 123.489 54.87 122.253 52.0464L118.589 53.6496C120.041 56.97 122.063 59.8022 124.658 62.1166L127.32 59.1314ZM122.259 52.0602C121.038 49.2104 120.405 45.9328 120.405 42.192H116.405C116.405 46.3872 117.116 50.2136 118.583 53.6358L122.259 52.0602ZM120.405 42.192C120.405 38.519 121.037 35.3107 122.253 32.5296L118.589 30.9264C117.117 34.2893 116.405 38.057 116.405 42.192H120.405ZM122.246 32.5472C123.553 29.6345 125.256 27.2408 127.34 25.3303L124.638 22.3817C122.114 24.6952 120.105 27.5495 118.596 30.9088L122.246 32.5472ZM127.362 25.31C129.472 23.3172 131.866 21.8296 134.554 20.836L133.168 17.084C129.968 18.2664 127.114 20.0428 124.616 22.402L127.362 25.31ZM134.576 20.8277C137.357 19.7626 140.219 19.232 143.173 19.232V15.232C139.727 15.232 136.381 15.8534 133.146 17.0923L134.576 20.8277ZM143.173 19.232C146.612 19.232 149.579 19.7749 152.112 20.8111L153.626 17.1089C150.527 15.8411 147.03 15.232 143.173 15.232V19.232ZM152.112 20.8111C154.679 21.8615 156.759 23.2979 158.395 25.103L161.359 22.417C159.283 20.1261 156.691 18.3625 153.626 17.1089L152.112 20.8111ZM158.418 25.1279C160.132 26.9563 161.43 29.1379 162.304 31.7013L166.09 30.4107C165.044 27.3421 163.462 24.6597 161.336 22.3921L158.418 25.1279ZM162.309 31.7147C163.186 34.2312 163.637 37.0136 163.637 40.08H167.637C167.637 36.6184 167.128 33.3848 166.085 30.3973L162.309 31.7147ZM163.637 40.08C163.637 41.2597 163.549 42.4033 163.373 43.5121L167.325 44.1359C167.533 42.8127 167.637 41.4603 167.637 40.08H163.637ZM163.361 43.6031C163.235 44.7378 163.116 45.5148 163.013 45.9821L166.917 46.8499C167.07 46.1652 167.207 45.2142 167.337 44.0449L163.361 43.6031ZM164.965 44.416H132.517V48.416H164.965V44.416ZM130.557 46.8152C131.343 50.6749 133.154 53.7183 136.122 55.6708L138.32 52.3292C136.424 51.0817 135.099 49.0691 134.477 46.0168L130.557 46.8152ZM136.122 55.6708C138.974 57.5474 142.56 58.4 146.725 58.4V54.4C143.082 54.4 140.332 53.6526 138.32 52.3292L136.122 55.6708ZM146.725 58.4C149.079 58.4 151.322 58.0882 153.444 57.4517L152.294 53.6203C150.576 54.1358 148.723 54.4 146.725 54.4V58.4ZM153.427 57.4567C155.551 56.8399 157.719 55.9564 159.929 54.8179L158.097 51.2621C156.083 52.2996 154.155 53.0801 152.311 53.6153L153.427 57.4567ZM157.261 54.0046L161.965 62.5486L165.469 60.6194L160.765 52.0754L157.261 54.0046ZM162.653 59.8902C160.06 61.5187 157.181 62.8243 154.009 63.8004L155.185 67.6236C158.669 66.5517 161.87 65.1053 164.781 63.2778L162.653 59.8902ZM154.043 63.7904C150.88 64.7026 147.803 65.152 144.805 65.152V69.152C148.207 69.152 151.658 68.6414 155.151 67.6336L154.043 63.7904ZM143.653 25.984C140.472 25.984 137.657 26.8227 135.332 28.6048L137.766 31.7792C139.281 30.6173 141.202 29.984 143.653 29.984V25.984ZM135.306 28.625C133.002 30.4526 131.537 33.1436 130.762 36.4562L134.656 37.3678C135.289 34.6644 136.384 32.8754 137.792 31.759L135.306 28.625ZM132.709 38.912H153.061V34.912H132.709V38.912ZM155.047 36.6771C154.661 33.4149 153.575 30.6797 151.558 28.7653C149.52 26.8317 146.796 25.984 143.653 25.984V29.984C146.078 29.984 147.706 30.6243 148.804 31.6667C149.923 32.7283 150.757 34.4571 151.075 37.1469L155.047 36.6771ZM193.728 65.136L192.973 66.9882L192.993 66.9965L193.014 67.0044L193.728 65.136ZM184.512 58.992L183.08 60.3891L183.089 60.3977L183.097 60.4062L184.512 58.992ZM178.176 49.008L176.307 49.72L176.313 49.738L176.321 49.7559L178.176 49.008ZM178.176 21.264L180.045 21.976L180.048 21.9662L178.176 21.264ZM184.512 10.896L185.958 12.277L185.958 12.277L184.512 10.896ZM194.016 4.464L194.764 6.3187L194.764 6.3187L194.016 4.464ZM216.48 4.752L215.557 6.52643L215.571 6.53376L215.585 6.54085L216.48 4.752ZM224.448 10.224L225.941 11.5537L227.216 10.1223L225.84 8.7882L224.448 10.224ZM216.672 18.96L215.323 20.437L216.819 21.8027L218.165 20.2897L216.672 18.96ZM211.776 15.696L210.908 17.498L210.921 17.5041L210.933 17.51L211.776 15.696ZM199.584 15.888L200.453 17.6891L200.478 17.6771L200.502 17.6644L199.584 15.888ZM194.688 19.824L193.137 18.5606L193.123 18.5782L193.109 18.5961L194.688 19.824ZM191.52 26.16L189.608 25.5718L189.608 25.5718L191.52 26.16ZM194.784 49.68L193.238 50.9495L193.244 50.9563L193.249 50.9631L194.784 49.68ZM212.448 53.424L211.506 51.6593L211.494 51.666L211.481 51.6728L212.448 53.424ZM217.632 49.392L219.111 48.0458L217.642 46.4321L216.162 48.0354L217.632 49.392ZM225.408 57.936L226.936 59.2257L228.066 57.8861L226.887 56.5898L225.408 57.936ZM204.864 65.152C201.194 65.152 197.725 64.5215 194.441 63.2676L193.014 67.0044C196.77 68.4385 200.725 69.152 204.864 69.152V65.152ZM194.482 63.2838C191.278 61.9783 188.429 60.0809 185.926 57.5778L183.097 60.4062C185.97 63.2791 189.265 65.4777 192.973 66.9882L194.482 63.2838ZM185.943 57.5949C183.524 55.1177 181.546 52.0195 180.03 48.2601L176.321 49.7559C178.005 53.9325 180.251 57.4902 183.08 60.3891L185.943 57.5949ZM180.044 48.296C178.612 44.5347 177.872 40.1437 177.872 35.088H173.872C173.872 40.5283 174.667 45.4173 176.307 49.72L180.044 48.296ZM177.872 35.088C177.872 30.0996 178.611 25.7399 180.044 21.976L176.307 20.552C174.668 24.8521 173.872 29.7084 173.872 35.088H177.872ZM180.048 21.9662C181.501 18.0917 183.478 14.875 185.958 12.277L183.065 9.51505C180.169 12.549 177.922 16.2443 176.303 20.5618L180.048 21.9662ZM185.958 12.277C188.448 9.66895 191.377 7.6854 194.764 6.3187L193.267 2.6093C189.358 4.1866 185.951 6.49105 183.065 9.51505L185.958 12.277ZM194.764 6.3187C198.161 4.94811 201.809 4.256 205.728 4.256V0.255997C201.326 0.255997 197.166 1.03589 193.267 2.6093L194.764 6.3187ZM205.728 4.256C209.407 4.256 212.67 5.02504 215.557 6.52643L217.402 2.97757C213.89 1.15096 209.984 0.255997 205.728 0.255997V4.256ZM215.585 6.54085C218.64 8.06838 221.118 9.78116 223.055 11.6598L225.84 8.7882C223.553 6.57083 220.719 4.63561 217.374 2.96314L215.585 6.54085ZM222.954 8.89425L215.178 17.6303L218.165 20.2897L225.941 11.5537L222.954 8.89425ZM218.02 17.483C216.399 16.0028 214.596 14.8006 212.618 13.882L210.933 17.51C212.539 18.2554 214 19.2292 215.323 20.437L218.02 17.483ZM212.643 13.894C210.595 12.908 208.272 12.448 205.728 12.448V16.448C207.791 16.448 209.5 16.82 210.908 17.498L212.643 13.894ZM205.728 12.448C203.191 12.448 200.825 12.9942 198.665 14.1116L200.502 17.6644C202.054 16.8618 203.784 16.448 205.728 16.448V12.448ZM198.714 14.0869C196.573 15.1203 194.715 16.6245 193.137 18.5606L196.238 21.0873C197.476 19.5675 198.882 18.4477 200.453 17.6891L198.714 14.0869ZM193.109 18.5961C191.59 20.5484 190.434 22.8878 189.608 25.5718L193.431 26.7482C194.141 24.4402 195.097 22.5556 196.266 21.0519L193.109 18.5961ZM189.608 25.5718C188.771 28.2921 188.368 31.3113 188.368 34.608H192.368C192.368 31.6327 192.732 29.0199 193.431 26.7482L189.608 25.5718ZM188.368 34.608C188.368 41.3548 189.903 46.8896 193.238 50.9495L196.329 48.4105C193.776 45.3024 192.368 40.7892 192.368 34.608H188.368ZM193.249 50.9631C196.587 54.954 200.997 56.96 206.304 56.96V52.96C202.138 52.96 198.868 51.446 196.318 48.3969L193.249 50.9631ZM206.304 56.96C208.862 56.96 211.245 56.3717 213.414 55.1752L211.481 51.6728C209.938 52.5243 208.225 52.96 206.304 52.96V56.96ZM213.389 55.1887C215.514 54.055 217.419 52.5705 219.101 50.7486L216.162 48.0354C214.772 49.5415 213.221 50.745 211.506 51.6593L213.389 55.1887ZM216.152 50.7382L223.928 59.2822L226.887 56.5898L219.111 48.0458L216.152 50.7382ZM223.879 56.6463C219.1 62.3104 212.826 65.152 204.864 65.152V69.152C213.925 69.152 221.347 65.8496 226.936 59.2257L223.879 56.6463ZM234.778 66H232.778V68H234.778V66ZM234.778 3.408V1.408H232.778V3.408H234.778ZM249.082 3.408H251.082V1.408H249.082V3.408ZM249.082 29.04H247.082V31.04H249.082V29.04ZM249.37 29.04V31.04H250.392L250.991 30.2116L249.37 29.04ZM267.898 3.408V1.408H266.876L266.277 2.23635L267.898 3.408ZM283.546 3.408L285.141 4.61488L287.568 1.408H283.546V3.408ZM264.73 28.272L263.135 27.0651L262.356 28.0946L262.974 29.2285L264.73 28.272ZM285.274 66V68H288.64L287.03 65.0435L285.274 66ZM269.626 66L267.838 66.897L268.392 68H269.626V66ZM256.282 39.408L258.07 38.511L256.628 35.6388L254.688 38.2003L256.282 39.408ZM249.082 48.912L247.488 47.7043L247.082 48.24V48.912H249.082ZM249.082 66V68H251.082V66H249.082ZM236.778 66V3.408H232.778V66H236.778ZM234.778 5.408H249.082V1.408H234.778V5.408ZM247.082 3.408V29.04H251.082V3.408H247.082ZM249.082 31.04H249.37V27.04H249.082V31.04ZM250.991 30.2116L269.519 4.57965L266.277 2.23635L247.749 27.8684L250.991 30.2116ZM267.898 5.408H283.546V1.408H267.898V5.408ZM281.951 2.20111L263.135 27.0651L266.325 29.4789L285.141 4.61488L281.951 2.20111ZM262.974 29.2285L283.518 66.9565L287.03 65.0435L266.486 27.3155L262.974 29.2285ZM285.274 64H269.626V68H285.274V64ZM271.414 65.103L258.07 38.511L254.494 40.305L267.838 66.897L271.414 65.103ZM254.688 38.2003L247.488 47.7043L250.676 50.1197L257.876 40.6157L254.688 38.2003ZM247.082 48.912V66H251.082V48.912H247.082ZM249.082 64H234.778V68H249.082V64Z" fill="black"/>
</svg>
